<svg width="107" height="107" viewBox="0 0 107 107" fill="none" xmlns="http://www.w3.org/2000/svg">
<path d="M53.2012 0H52.9595C23.7108 0 0 23.7177 0 52.9751V53.2169C0 82.4742 23.7108 106.192 52.9595 106.192H53.2012C82.4499 106.192 106.161 82.4742 106.161 53.2169V52.9751C106.161 23.7177 82.4499 0 53.2012 0Z" fill="#F975B3"/>
<path d="M69.5102 21.6016H36.6611C27.586 21.6016 20.2031 28.9866 20.2031 38.0644V68.1254C20.2031 77.2032 27.586 84.5883 36.6611 84.5883H69.5102C78.5853 84.5883 85.9682 77.2032 85.9682 68.1254V38.0644C85.9682 28.9866 78.5853 21.6016 69.5102 21.6016ZM26.009 38.0644C26.009 32.1899 30.7883 27.4091 36.6611 27.4091H69.5102C75.383 27.4091 80.1623 32.1899 80.1623 38.0644V68.1254C80.1623 73.9999 75.383 78.7807 69.5102 78.7807H36.6611C30.7883 78.7807 26.009 73.9999 26.009 68.1254V38.0644Z" fill="white"/>
<path d="M53.0822 68.4077C61.5213 68.4077 68.3909 61.5398 68.3909 53.0945C68.3909 44.6491 61.5251 37.7812 53.0822 37.7812C44.6393 37.7812 37.7734 44.6491 37.7734 53.0945C37.7734 61.5398 44.6393 68.4077 53.0822 68.4077ZM53.0822 43.5925C58.3227 43.5925 62.5851 47.8561 62.5851 53.0982C62.5851 58.3403 58.3227 62.6039 53.0822 62.6039C47.8417 62.6039 43.5793 58.3403 43.5793 53.0982C43.5793 47.8561 47.8417 43.5925 53.0822 43.5925Z" fill="white"/>
<path d="M69.8122 40.2519C72.0847 40.2519 73.937 38.4029 73.937 36.126C73.937 33.8491 72.0884 32 69.8122 32C67.536 32 65.6875 33.8491 65.6875 36.126C65.6875 38.4029 67.536 40.2519 69.8122 40.2519Z" fill="white"/>
</svg>
