<svg width="107" height="107" viewBox="0 0 107 107" fill="none" xmlns="http://www.w3.org/2000/svg">
<path d="M53.2715 0.804688H53.0298C23.7811 0.804688 0.0703125 24.5224 0.0703125 53.7798V54.0216C0.0703125 83.2789 23.7811 106.997 53.0298 106.997H53.2715C82.5202 106.997 106.231 83.2789 106.231 54.0216V53.7798C106.231 24.5224 82.5202 0.804688 53.2715 0.804688Z" fill="#F975B3"/>
<path d="M63.5036 69.4293C49.9169 69.4293 38.8631 58.3685 38.8594 44.7778C38.8631 41.3327 41.6675 38.5312 45.1041 38.5312C45.4575 38.5312 45.8071 38.561 46.1418 38.6205C46.8782 38.7433 47.5775 38.9926 48.2209 39.3683C48.3139 39.4242 48.3771 39.5135 48.392 39.6176L49.8277 48.6694C49.8463 48.7736 49.8128 48.8815 49.7421 48.9596C48.9499 49.8376 47.9382 50.4701 46.8113 50.7863L46.2683 50.9389L46.4728 51.4634C48.325 56.1809 52.0965 59.9497 56.8163 61.8099L57.3407 62.0183L57.4932 61.4751C57.8093 60.3478 58.4416 59.3358 59.3194 58.5434C59.3826 58.4839 59.4682 58.4541 59.5537 58.4541C59.5723 58.4541 59.5909 58.4541 59.6132 58.4578L68.6623 59.8939C68.7702 59.9125 68.8595 59.972 68.9153 60.065C69.2872 60.7087 69.5364 61.4118 69.6628 62.1485C69.7223 62.4759 69.7484 62.8219 69.7484 63.1828C69.7484 66.6241 66.9477 69.4256 63.5036 69.4293Z" fill="#FDFDFD"/>
<path d="M87.5936 50.9156C86.8609 42.6339 83.0672 34.9512 76.9117 29.285C70.719 23.5853 62.6852 20.4453 54.2833 20.4453C35.8429 20.4453 20.8391 35.4535 20.8391 53.8993C20.8391 60.0901 22.5463 66.1209 25.7784 71.3741L18.5703 87.3347L41.6487 84.8755C45.6619 86.52 49.9093 87.3533 54.2795 87.3533C55.4288 87.3533 56.6079 87.2938 57.7906 87.171C58.832 87.0594 59.8846 86.8957 60.9186 86.6874C76.3612 83.5659 87.6345 69.8562 87.7237 54.0779V53.8993C87.7237 52.8948 87.6791 51.8903 87.5898 50.9193L87.5936 50.9156ZM42.5377 77.87L29.7692 79.2317L33.5815 70.7826L32.8191 69.7595C32.7633 69.6851 32.7075 69.6106 32.6443 69.5251C29.3341 64.9527 27.586 59.5506 27.586 53.903C27.586 39.1776 39.5622 27.1979 54.2833 27.1979C68.0745 27.1979 79.7644 37.961 80.8913 51.7006C80.9508 52.4372 80.9843 53.1776 80.9843 53.9068C80.9843 54.1151 80.9806 54.3197 80.9769 54.5392C80.6942 66.8575 72.0914 77.3194 60.0557 79.9832C59.137 80.1878 58.196 80.3441 57.2587 80.4445C56.2843 80.5561 55.2838 80.6119 54.2907 80.6119C50.7536 80.6119 47.317 79.9274 44.07 78.5731C43.7092 78.428 43.3559 78.2718 43.0249 78.1118L42.5414 77.8774L42.5377 77.87Z" fill="#FDFDFD"/>
</svg>
