<svg width="107" height="107" viewBox="0 0 107 107" fill="none" xmlns="http://www.w3.org/2000/svg">
<path d="M53.2012 0H52.9595C23.7108 0 0 23.7177 0 52.9751V53.2169C0 82.4742 23.7108 106.192 52.9595 106.192H53.2012C82.4499 106.192 106.161 82.4742 106.161 53.2169V52.9751C106.161 23.7177 82.4499 0 53.2012 0Z" fill="#F975B3"/>
<path d="M25.3205 35.2926C23.922 33.9942 23.2266 32.387 23.2266 30.4747C23.2266 28.5624 23.9258 26.8845 25.3205 25.5823C26.719 24.2839 28.5191 23.6328 30.7247 23.6328C32.9302 23.6328 34.6598 24.2839 36.0545 25.5823C37.453 26.8807 38.1484 28.514 38.1484 30.4747C38.1484 32.4353 37.4493 33.9942 36.0545 35.2926C34.656 36.591 32.8819 37.2421 30.7247 37.2421C28.5675 37.2421 26.719 36.591 25.3205 35.2926ZM36.9732 42.7409V82.5494H24.3981V42.7409H36.9732Z" fill="#FEFFFC"/>
<path d="M78.8329 46.6754C81.574 49.6518 82.9427 53.7368 82.9427 58.938V81.8483H71V60.5526C71 57.9297 70.3194 55.8909 68.9619 54.44C67.6043 52.989 65.7744 52.2598 63.4833 52.2598C61.1922 52.2598 59.3622 52.9853 58.0047 54.44C56.6471 55.8909 55.9665 57.9297 55.9665 60.5526V81.8483H43.9531V42.6313H55.9665V47.8325C57.1827 46.0988 58.823 44.7297 60.8835 43.7214C62.944 42.7132 65.2611 42.2109 67.8386 42.2109C72.4283 42.2109 76.0954 43.6991 78.8329 46.6717V46.6754Z" fill="#FEFFFC"/>
</svg>
