<svg width="164" height="143" viewBox="0 0 164 143" fill="none" xmlns="http://www.w3.org/2000/svg">
<path d="M100.926 128.824C118.794 115.417 144.579 94.4279 155.324 77.6412C163.364 65.1 165.98 49.5626 162.483 35.1161C155.011 2.2084 113.637 -11.2385 87.8646 10.8143C86.4152 12.0464 85.079 13.4123 83.7075 14.8148C83.148 15.3872 82.5821 15.9656 82 16.5435C81.418 15.9656 80.852 15.3871 80.2925 14.8147C78.921 13.4123 77.5849 12.0464 76.1354 10.8143C50.3633 -11.2385 8.98871 2.2084 1.51698 35.1161C-1.98008 49.5626 0.635642 65.1 8.67599 77.6412C19.421 94.4279 45.2061 115.417 63.0741 128.824C68.0528 132.561 82 142.294 82 142.294C82 142.294 95.9473 132.561 100.926 128.824Z" fill="white"/>
</svg>
