<svg width="65" height="81" viewBox="0 0 65 81" fill="none" xmlns="http://www.w3.org/2000/svg">
<path d="M34.5996 4.25155L34.8184 5.65768C37.1444 20.6076 47.239 33.1956 61.3266 38.7136C62.9517 39.3502 62.9517 41.6498 61.3266 42.2864C47.239 47.8044 37.1444 60.3924 34.8184 75.3423L34.5996 76.7484C34.2266 79.1461 30.7734 79.146 30.4004 76.7484L30.1816 75.3423C27.8556 60.3924 17.761 47.8044 3.6734 42.2864C2.04833 41.6498 2.04833 39.3502 3.6734 38.7136C17.761 33.1956 27.8556 20.6076 30.1816 5.65769L30.4004 4.25156C30.7734 1.85392 34.2266 1.85396 34.5996 4.25155Z" fill="#FED337" stroke="black" stroke-width="3"/>
</svg>
