<svg width="58" height="64" viewBox="0 0 58 64" fill="none" xmlns="http://www.w3.org/2000/svg">
<path d="M30.3669 3.41689L30.4995 4.07646C33.0466 16.7527 42.3554 27.0028 54.7285 30.7555C55.9592 31.1287 55.9592 32.8713 54.7285 33.2445C42.3554 36.9972 33.0466 47.2473 30.4995 59.9235L30.3669 60.5831C30.067 62.0759 27.933 62.0759 27.6331 60.5831L27.5005 59.9235C24.9534 47.2473 15.6446 36.9972 3.27154 33.2445C2.0408 32.8713 2.0408 31.1287 3.27154 30.7555C15.6446 27.0028 24.9534 16.7527 27.5005 4.07645L27.6331 3.41688C27.933 1.92413 30.067 1.9241 30.3669 3.41689Z" fill="#FED337" stroke="black" stroke-width="3"/>
</svg>
