<svg width="45" height="61" viewBox="0 0 45 61" fill="none" xmlns="http://www.w3.org/2000/svg">
<path d="M23.7026 3.49184L23.8358 4.49652C25.289 15.462 32.2656 24.9155 42.3154 29.5369C43.1383 29.9153 43.1383 31.0847 42.3154 31.4631C32.2656 36.0844 25.289 45.538 23.8358 56.5035L23.7026 57.5082C23.5164 58.9132 21.4836 58.9132 21.2974 57.5081L21.1642 56.5035C19.711 45.538 12.7344 36.0845 2.68462 31.4631C1.86175 31.0847 1.86175 29.9153 2.68462 29.5369C12.7344 24.9155 19.711 15.462 21.1642 4.49652L21.2974 3.49184C21.4836 2.08683 23.5164 2.08679 23.7026 3.49184Z" fill="#FED337" stroke="black" stroke-width="3"/>
</svg>
