<svg width="57" height="62" viewBox="0 0 57 62" fill="none" xmlns="http://www.w3.org/2000/svg">
<path d="M29.8104 3.00971L29.9364 3.63098C32.4625 16.088 41.6361 26.1457 53.8088 29.804C54.9947 30.1604 54.9947 31.8396 53.8088 32.196C41.6361 35.8543 32.4625 45.912 29.9364 58.369L29.8104 58.9903C29.5207 60.4188 27.4793 60.4187 27.1896 58.9903L27.0636 58.369C24.5375 45.912 15.3639 35.8543 3.19119 32.196C2.00533 31.8396 2.00532 30.1604 3.19119 29.804C15.3639 26.1457 24.5375 16.088 27.0636 3.63099L27.1896 3.00972C27.4793 1.58123 29.5207 1.58126 29.8104 3.00971Z" fill="#FED337" stroke="black" stroke-width="3"/>
</svg>
