<svg width="43" height="43" viewBox="0 0 43 43" fill="none" xmlns="http://www.w3.org/2000/svg">
<path d="M2.10402 24.3405C10.8068 20.57 16.761 12.2643 17.4769 2.79911C17.4896 2.63142 17.5466 2.54226 17.6007 2.48654C17.6651 2.42015 17.7658 2.36284 17.892 2.34052C18.0181 2.3182 18.1324 2.33747 18.2157 2.37772C18.2856 2.4115 18.3697 2.47569 18.4391 2.62885C22.3596 11.2737 30.8023 17.0319 40.2705 17.5871C40.4443 17.5973 40.5367 17.6552 40.595 17.7112C40.665 17.7785 40.7264 17.8853 40.7503 18.0203C40.7742 18.1552 40.7532 18.2767 40.7105 18.3638C40.6749 18.4364 40.608 18.5226 40.4483 18.5918C31.7455 22.3622 25.7913 30.6679 25.0754 40.1331C25.0627 40.3008 25.0057 40.39 24.9516 40.4457C24.8872 40.5121 24.7865 40.5694 24.6603 40.5917C24.5342 40.614 24.4199 40.5948 24.3366 40.5545C24.2667 40.5207 24.1826 40.4566 24.1131 40.3034C20.1927 31.6586 11.75 25.9003 2.2818 25.3452C2.10798 25.335 2.0156 25.277 1.95728 25.221C1.88729 25.1538 1.82588 25.0469 1.80201 24.912C1.77813 24.777 1.79913 24.6556 1.8418 24.5684C1.87736 24.4958 1.94425 24.4097 2.10402 24.3405Z" fill="#FED337" stroke="black" stroke-width="3"/>
</svg>
