<svg width="42" height="41" viewBox="0 0 42 41" fill="none" xmlns="http://www.w3.org/2000/svg">
<path d="M2.38828 25.1899C10.6919 20.6069 15.827 11.7713 15.6372 2.28091C15.6338 2.11277 15.682 2.01859 15.7305 1.95796C15.7883 1.88573 15.8831 1.81908 16.0066 1.78483C16.13 1.75059 16.2456 1.75887 16.3324 1.791C16.4052 1.81796 16.495 1.87384 16.5788 2.01967C21.3056 10.2513 30.259 15.1783 39.7369 14.8281C39.9109 14.8217 40.0084 14.8706 40.0718 14.9208C40.1479 14.981 40.2192 15.0815 40.2558 15.2136C40.2925 15.3456 40.2831 15.4685 40.249 15.5594C40.2205 15.6351 40.1621 15.7272 40.0097 15.8113C31.7061 20.3944 26.571 29.2299 26.7608 38.7203C26.7642 38.8884 26.7159 38.9826 26.6674 39.0433C26.6096 39.1155 26.5148 39.1821 26.3914 39.2164C26.2679 39.2506 26.1524 39.2423 26.0656 39.2102C25.9928 39.1833 25.9029 39.1274 25.8192 38.9815C21.0923 30.7499 12.139 25.8229 2.66105 26.1731C2.48705 26.1795 2.38956 26.1306 2.32617 26.0805C2.25009 26.0202 2.17877 25.9197 2.14214 25.7876C2.1055 25.6556 2.11483 25.5327 2.149 25.4419C2.17747 25.3662 2.23584 25.2741 2.38828 25.1899Z" fill="#FED337" stroke="black" stroke-width="3"/>
</svg>
