<svg width="52" height="58" viewBox="0 0 52 58" fill="none" xmlns="http://www.w3.org/2000/svg">
<path d="M15.0589 2.56143L15.4598 3.10165C23.1658 13.484 35.9549 18.7903 48.7475 16.9128C50.0199 16.726 50.7625 18.3024 49.8081 19.1646C40.2137 27.8319 36.1601 41.0715 39.2574 53.6246L39.4186 54.2778C39.7833 55.7561 37.8528 56.6654 36.9453 55.4428L36.5444 54.9025C28.8385 44.5201 16.0493 39.2139 3.25675 41.0914C1.98429 41.2781 1.24177 39.7018 2.19612 38.8396C11.7905 30.1723 15.8441 16.9327 12.7468 4.37954L12.5857 3.72637C12.2209 2.24811 14.1514 1.33877 15.0589 2.56143Z" fill="#FED337" stroke="black" stroke-width="3"/>
</svg>
