<svg width="32" height="31" viewBox="0 0 32 31" fill="none" xmlns="http://www.w3.org/2000/svg">
<path d="M1.98062 9.84598C9.36714 10.9098 16.7834 7.8014 21.1688 1.7534C21.1785 1.74 21.186 1.73194 21.1906 1.72751C21.1975 1.72765 21.2106 1.729 21.2284 1.73604C21.2462 1.74308 21.2567 1.75105 21.2618 1.7557C21.2622 1.76208 21.2621 1.77308 21.26 1.7895C20.3204 9.20077 23.6024 16.5419 29.7173 20.8198C29.7336 20.8311 29.7426 20.8397 29.747 20.8444C29.7474 20.8523 29.7468 20.8708 29.7366 20.8966C29.7264 20.9225 29.7142 20.9363 29.7085 20.9418C29.702 20.9422 29.6896 20.9423 29.6699 20.9395C22.2834 19.8756 14.8671 22.9841 10.4818 29.032C10.4721 29.0454 10.4646 29.0535 10.46 29.0579C10.453 29.0578 10.4399 29.0564 10.4221 29.0494C10.4044 29.0424 10.3939 29.0344 10.3887 29.0298C10.3884 29.0234 10.3884 29.0124 10.3905 28.9959C11.3302 21.5847 8.04818 14.2436 1.93326 9.9657C1.91698 9.95431 1.90794 9.94576 1.90354 9.94107C1.90317 9.93313 1.90374 9.91469 1.91397 9.88884C1.9242 9.86298 1.9364 9.84914 1.94209 9.84361C1.94852 9.8432 1.96096 9.84315 1.98062 9.84598Z" fill="#FED337" stroke="black" stroke-width="3"/>
</svg>
