<svg width="34" height="39" viewBox="0 0 34 39" fill="none" xmlns="http://www.w3.org/2000/svg">
<path d="M17.2197 2.60999L17.2956 2.98324C18.8787 10.77 24.6175 17.0543 32.229 19.336C32.2701 19.3483 32.2911 19.3615 32.3002 19.3682C32.3098 19.3751 32.3164 19.3821 32.3221 19.3902C32.3348 19.4086 32.351 19.4463 32.351 19.5C32.351 19.5537 32.3348 19.5914 32.322 19.6098C32.3164 19.6179 32.3098 19.6249 32.3002 19.6318C32.2911 19.6385 32.2701 19.6517 32.229 19.664C24.6175 21.9457 18.8787 28.23 17.2956 36.0168L17.2197 36.39C17.2076 36.4498 17.1911 36.4809 17.1824 36.4947C17.1735 36.5089 17.1642 36.5185 17.1532 36.5268C17.1283 36.5456 17.0757 36.5696 17 36.5696C16.9243 36.5696 16.8717 36.5456 16.8468 36.5268C16.8358 36.5185 16.8265 36.5089 16.8176 36.4947C16.8089 36.4809 16.7924 36.4498 16.7803 36.39L16.7044 36.0168C15.1213 28.23 9.38248 21.9457 1.77102 19.664C1.72986 19.6517 1.7089 19.6385 1.69976 19.6318C1.69021 19.6249 1.68363 19.6179 1.67795 19.6098C1.66518 19.5914 1.64896 19.5537 1.64896 19.5C1.64896 19.4463 1.66518 19.4086 1.67795 19.3902C1.68363 19.3821 1.69021 19.3751 1.69977 19.3682C1.7089 19.3615 1.72986 19.3483 1.77102 19.336C9.38248 17.0543 15.1213 10.77 16.7044 2.98324L16.7803 2.60999C16.7924 2.55024 16.8089 2.51911 16.8176 2.50534C16.8265 2.49113 16.8358 2.48147 16.8468 2.47318C16.8717 2.45444 16.9243 2.43042 17 2.43042C17.0757 2.43042 17.1283 2.45444 17.1532 2.47319C17.1642 2.48147 17.1735 2.49113 17.1824 2.50534C17.1911 2.51911 17.2076 2.55025 17.2197 2.60999Z" fill="#FED337" stroke="black" stroke-width="3"/>
</svg>
