<svg width="22" height="37" viewBox="0 0 22 37" fill="none" xmlns="http://www.w3.org/2000/svg">
<path d="M12.1956 0.882682C16.1444 3.45673 18.3611 6.81051 20.8791 9.77766C21.5999 10.6315 21.9384 12.8314 21.4063 13.7217C16.9537 20.9368 13.6632 29.0324 7.0692 34.7102C6.41705 35.2717 5.78463 35.918 5.02227 36.1931C4.01293 36.5283 2.69584 36.849 1.9403 36.4064C1.18476 35.9638 0.684564 34.564 0.6635 33.5398C0.604684 32.1668 1.10087 30.7482 1.38122 29.3374C1.95179 26.5581 2.52235 23.7789 3.13408 20.9896C3.41443 19.5788 3.54154 18.071 4.16922 16.8441C6.57957 11.6926 9.19403 6.67042 12.1956 0.882682Z" fill="black"/>
</svg>
