<svg width="36" height="26" viewBox="0 0 36 26" fill="none" xmlns="http://www.w3.org/2000/svg">
<path d="M34.3134 8.6853L27.3083 2.05984C26.2951 1.09836 24.6879 1.14206 23.7359 2.16473C22.7838 3.18739 22.8187 4.78694 23.8407 5.73968L25.8496 7.64516C26.8803 8.62412 26.924 10.2499 25.9544 11.2813C24.9849 12.3127 23.3515 12.3652 22.3209 11.3862L15.5341 4.97049C14.5209 4.00901 12.9138 4.05272 11.953 5.07539C10.9922 6.09805 11.0358 7.6976 12.0578 8.65908L22.4956 18.5274C23.5262 19.5063 23.5786 21.1321 22.6004 22.1722C21.6221 23.2124 19.9975 23.2561 18.9668 22.2771L11.1581 14.8912C10.1449 13.9297 8.53776 13.9734 7.57696 14.9961C6.61616 16.0188 6.65983 17.6183 7.68177 18.5798L9.37627 20.1794C10.4069 21.1583 10.4594 22.7841 9.48108 23.8242C8.50282 24.8644 6.8782 24.9081 5.84752 23.9291L1.44531 19.7685" stroke="#010101" stroke-width="2.5" stroke-miterlimit="10"/>
</svg>
