<svg width="11" height="13" viewBox="0 0 11 13" fill="none" xmlns="http://www.w3.org/2000/svg">
<path d="M0.609375 6.64279C0.609375 6.80012 0.714184 6.93998 0.862671 6.98368C1.08103 7.0536 1.70119 7.26338 1.94576 7.39449C3.53544 8.22486 4.67094 9.9293 4.99412 11.9484C5.02032 12.1232 5.1688 12.2543 5.35222 12.2543C5.53565 12.2543 5.68414 12.1232 5.71034 11.9484C6.03352 9.92056 7.17775 8.22486 8.7587 7.39449C9.00327 7.26338 9.62341 7.0536 9.84177 6.98368C9.99026 6.93123 10.0951 6.80012 10.0951 6.64279C10.0951 6.48546 9.99026 6.34561 9.84177 6.3019C9.62341 6.23198 9.00327 6.0222 8.7587 5.89109C7.16901 5.06072 6.03352 3.35628 5.71034 1.33717C5.68414 1.16236 5.53565 1.03125 5.35222 1.03125C5.1688 1.03125 5.02032 1.16236 4.99412 1.33717C4.67094 3.36502 3.52671 5.06072 1.94576 5.89109C1.70119 6.0222 1.08103 6.23198 0.862671 6.3019C0.714184 6.35435 0.609375 6.48546 0.609375 6.64279ZM2.03311 6.64279C2.12919 6.60783 2.2078 6.56413 2.27767 6.52916C3.68394 5.79494 4.77574 4.46635 5.35222 2.84932C5.9287 4.4751 7.02052 5.80368 8.42678 6.52916C8.49666 6.56413 8.57527 6.59909 8.67135 6.64279C8.57527 6.67775 8.49666 6.72146 8.42678 6.75642C7.02052 7.49065 5.9287 8.81923 5.35222 10.4363C4.77574 8.81049 3.68394 7.4819 2.27767 6.75642C2.2078 6.72146 2.12919 6.68649 2.03311 6.64279Z" fill="#231F20" stroke="#231F20" stroke-width="0.75" stroke-miterlimit="10"/>
</svg>
