<svg width="6" height="7" viewBox="0 0 6 7" fill="none" xmlns="http://www.w3.org/2000/svg">
<path d="M0.574013 5.42282C0.994119 5.87704 1.52016 6.17865 2.13468 6.25044C2.69614 6.31939 3.29312 6.23483 3.80117 5.98434C4.39212 5.68936 4.83728 5.27001 5.15976 4.69731C5.44469 4.18159 5.54335 3.57242 5.51278 2.98655C5.4793 2.37462 5.23067 1.72525 4.81056 1.27103C4.65025 1.09551 4.48611 0.964403 4.24493 0.92989C4.02979 0.892455 3.75495 0.949671 3.58631 1.09173C3.24806 1.36715 3.07703 1.95805 3.40732 2.3168C3.4672 2.38045 3.52805 2.45278 3.57057 2.51837C3.5812 2.53477 3.65073 2.60613 3.64594 2.64185C3.64789 2.65923 3.54541 2.45083 3.58119 2.53477C3.59377 2.56854 3.61405 2.59265 3.62663 2.62642C3.66241 2.71037 3.6982 2.79431 3.7253 2.87922C3.75241 2.96414 3.74966 3.09638 3.72043 2.83579C3.72628 2.88791 3.73115 2.93134 3.74568 2.98249C3.7564 3.07804 3.76809 3.18227 3.77881 3.27782C3.78076 3.29519 3.775 3.32222 3.78563 3.33862C3.7866 3.34731 3.79599 3.11757 3.78837 3.20638C3.78554 3.25947 3.78368 3.32125 3.77216 3.37531C3.76455 3.46412 3.74923 3.5626 3.72328 3.64467C3.7262 3.67073 3.70406 3.70839 3.69733 3.72673C3.6983 3.73542 3.76366 3.53459 3.72806 3.60895C3.70786 3.66399 3.68767 3.71902 3.66748 3.77406C3.65402 3.81076 3.63285 3.85711 3.6107 3.89477C3.60397 3.91312 3.5356 4.00874 3.53755 4.02612C3.53755 4.02612 3.6425 3.86482 3.59724 3.93146C3.58183 3.95078 3.5751 3.96913 3.55969 3.98845C3.52984 4.03578 3.49131 4.08407 3.45181 4.12369C3.42099 4.16233 3.38051 4.19326 3.34969 4.2319C3.29672 4.3082 3.4441 4.13335 3.43737 4.15169C3.43932 4.16907 3.38148 4.20194 3.3728 4.20292C3.30053 4.2638 3.2186 4.31697 3.13667 4.37014C3.02295 4.45326 3.31984 4.27922 3.18583 4.33823C3.14437 4.36047 3.10293 4.38272 3.05182 4.39724C3.00071 4.41177 2.80214 4.52201 2.75581 4.50082C2.74713 4.50179 2.96989 4.45041 2.88406 4.46883C2.8667 4.47078 2.84066 4.4737 2.8233 4.47565C2.7799 4.48052 2.72782 4.48636 2.68442 4.49123C2.58894 4.50194 2.49346 4.51266 2.40569 4.51371C2.32756 4.52247 2.54554 4.50681 2.53784 4.51647C2.53784 4.51647 2.44909 4.50884 2.44041 4.50981C2.38735 4.50697 2.33332 4.49544 2.28894 4.49162C2.27158 4.49357 2.15485 4.47148 2.15387 4.46279C2.15387 4.46279 2.38257 4.54269 2.2629 4.49454C2.23589 4.48878 2.21658 4.47335 2.18957 4.46758C2.14325 4.44639 2.09692 4.4252 2.0506 4.40401C2.03226 4.39727 2.01295 4.38185 2.0033 4.37414C1.92898 4.3385 2.19444 4.51102 2.07859 4.41847C2.04094 4.3963 2.00232 4.36545 1.97336 4.34232C1.91543 4.29604 1.77442 4.13595 1.97531 4.35969C1.81499 4.18417 1.65086 4.05306 1.40968 4.01854C1.19454 3.98111 0.919695 4.03832 0.751054 4.18038C0.42148 4.45483 0.241773 5.0467 0.572065 5.40545L0.574013 5.42282Z" fill="#231F20"/>
</svg>
