<svg width="21" height="25" viewBox="0 0 21 25" fill="none" xmlns="http://www.w3.org/2000/svg">
<path d="M1.21875 12.7628C1.21875 13.0862 1.42838 13.366 1.72535 13.4621C2.17082 13.602 3.42859 14.0302 3.92646 14.2925C7.16697 15.9794 9.49036 19.4582 10.1542 23.5926C10.2153 23.951 10.521 24.2132 10.8792 24.2132C11.2373 24.2132 11.5517 23.951 11.6041 23.5926C12.2592 19.467 14.5913 15.9882 17.8318 14.2925C18.3297 14.0302 19.5962 13.602 20.0329 13.4621C20.3387 13.366 20.5395 13.0775 20.5395 12.7628C20.5395 12.4394 20.3299 12.1597 20.0329 12.0636C19.5875 11.9237 18.3297 11.4954 17.8318 11.2332C14.5913 9.54626 12.2679 6.06745 11.6041 1.93309C11.543 1.57472 11.2373 1.3125 10.8792 1.3125C10.521 1.3125 10.2066 1.57472 10.1542 1.93309C9.49909 6.05871 7.16697 9.53752 3.92646 11.2332C3.42859 11.4954 2.16208 11.9237 1.72535 12.0636C1.41965 12.1597 1.21875 12.4482 1.21875 12.7628ZM4.11862 12.7628C4.30204 12.6842 4.47673 12.6055 4.61648 12.5356C7.48141 11.0409 9.70872 8.3313 10.8879 5.01856C12.067 8.3313 14.2944 11.0409 17.1593 12.5356C17.299 12.6055 17.465 12.6842 17.6571 12.7628C17.4737 12.8415 17.299 12.9202 17.1593 12.9901C14.2944 14.4848 12.067 17.1944 10.8879 20.5071C9.70872 17.1944 7.48141 14.4848 4.61648 12.9901C4.47673 12.9202 4.31078 12.8415 4.11862 12.7628Z" fill="#231F20" stroke="#231F20" stroke-width="0.75" stroke-miterlimit="10"/>
</svg>
