<svg width="11" height="13" viewBox="0 0 11 13" fill="none" xmlns="http://www.w3.org/2000/svg">
<path d="M0.40625 6.72092C0.40625 6.87825 0.511065 7.0181 0.659552 7.0618C0.877916 7.13173 1.49807 7.34151 1.74263 7.47262C3.33232 8.30299 4.46781 10.0074 4.79099 12.0265C4.81719 12.2013 4.96568 12.3325 5.1491 12.3325C5.33253 12.3325 5.48102 12.2013 5.50722 12.0265C5.8304 9.99868 6.97462 8.30299 8.55557 7.47262C8.80014 7.34151 9.42029 7.13173 9.63866 7.0618C9.78714 7.00936 9.89196 6.87825 9.89196 6.72092C9.89196 6.56358 9.78714 6.42373 9.63866 6.38003C9.42029 6.3101 8.80014 6.10032 8.55557 5.96921C6.96589 5.13885 5.8304 3.4344 5.50722 1.41529C5.48102 1.24048 5.33253 1.10938 5.1491 1.10938C4.96568 1.10938 4.81719 1.24048 4.79099 1.41529C4.46781 3.44314 3.32358 5.13885 1.74263 5.96921C1.49807 6.10032 0.877916 6.3101 0.659552 6.38003C0.511065 6.43247 0.40625 6.56358 0.40625 6.72092ZM1.82998 6.72092C1.92606 6.68595 2.00467 6.64225 2.07455 6.60728C3.48081 5.87306 4.57262 4.54448 5.1491 2.92745C5.72558 4.55322 6.8174 5.8818 8.22366 6.60728C8.29354 6.64225 8.37215 6.67721 8.46823 6.72092C8.37215 6.75588 8.29354 6.79959 8.22366 6.83455C6.8174 7.56877 5.72558 8.89735 5.1491 10.5144C4.57262 8.88861 3.48081 7.56003 2.07455 6.83455C2.00467 6.79959 1.92606 6.76462 1.82998 6.72092Z" fill="#231F20" stroke="#231F20" stroke-width="0.75" stroke-miterlimit="10"/>
</svg>
